<svg xmlns="http://www.w3.org/2000/svg" viewBox="0 0 694 347" width="694" height="347" role="img" aria-label="MHR Facility"><path fill="#000000" fill-rule="evenodd" d="M 452.5 7.0 L 454.0 104.5 L 584.0 104.5 L 598.5 113.0 L 605.5 128.0 L 604.5 139.0 L 599.5 148.0 L 584 157.5 L 454 157.5 L 454.5 161.0 L 585.0 340.5 L 687.0 340.5 L 684.5 334 L 612.5 234 L 637.0 221.5 L 656.5 203 L 669.5 183 L 677.5 163 L 682.5 131 L 681.5 107 L 674.5 78 L 660.5 51 L 642 30.5 L 630 21.5 L 612 12.5 L 594 7.5 L 574 5.5 L 452.5 7.0 Z M 5.5 339.0 L 104.0 340.5 L 107.5 337 L 265.5 95 L 269.5 79 L 267.5 51 L 261.5 36 L 244 15.5 L 227 6.5 L 222.5 9.0 L 5.5 339.0 Z M 150.5 340.0 L 255.5 339 L 416.5 98 L 421.5 77 L 419.5 52 L 408.5 29 L 393 13.5 L 379 6.5 L 373.5 10.0 L 150.5 340.0 Z M 357.5 263.0 L 357.5 274.0 L 363.5 289.0 L 401.0 340.5 L 507.5 339 L 427.5 226 L 424.5 216 L 424 157.5 L 361.5 251.0 L 357.5 263.0 Z"/></svg>
